# xmcd
#
# Track frame offsets:
#	150
#	18924
#	38007
#	62466
#
# Disc length: 1194 seconds
#
# Revision: 1
# Processed by: cddbd v1.5.1PL0 Copyright (c) Steve Scherf et al.
# Submitted via: audiograbber 1.83.01
#
DISCID=2304a804
DTITLE=Mint Royale - Shake Me
DYEAR=1999
DGENRE=Dance
TTITLE0=Shake Me (Vocal Edit)
TTITLE1=Shake Me (Original)
TTITLE2=Shake Me (Vocal)
TTITLE3=Shake Me (Original Extended)
EXTD=
EXTT0=
EXTT1=
EXTT2=
EXTT3=
PLAYORDER=
